<svg width="1728" height="851" viewBox="0 0 1728 851" fill="none" xmlns="http://www.w3.org/2000/svg">
<g clip-path="url(#clip0_207_23414)">
<rect width="1729" height="851" fill="#3A57E8"/>
<g opacity="0.8">
<path opacity="0.25" d="M89.1663 794.16C102.597 789.935 110.568 774.758 106.968 760.262C103.369 745.766 89.563 737.44 76.1318 741.666C62.7006 745.891 54.7304 761.068 58.3297 775.564C61.9291 790.06 75.7351 798.386 89.1663 794.16Z" fill="#CFDAE6"/>
<path opacity="0.6" d="M8.71636 758.207C11.9333 757.195 13.8423 753.559 12.9802 750.087C12.1181 746.615 8.81138 744.621 5.59439 745.633C2.37741 746.645 0.468407 750.28 1.33051 753.752C2.19262 757.224 5.49938 759.219 8.71636 758.207Z" fill="#CFDAE6"/>
<path opacity="0.45" fill-rule="evenodd" clip-rule="evenodd" d="M60.7316 847.865C67.1655 845.841 70.9835 838.571 69.2593 831.627C67.5351 824.683 60.9216 820.695 54.4876 822.719C48.0537 824.743 44.2356 832.013 45.9599 838.957C47.6841 845.901 54.2976 849.89 60.7316 847.865Z" fill="#CFDAE6"/>
<path opacity="0.8" d="M85.5764 768.767L148.374 736.385" stroke="#CFDAE6" stroke-width="1.73913" stroke-linecap="round" stroke-linejoin="round"/>
<path opacity="0.7" d="M54.7015 759.165L9.43848 756.714" stroke="#E0B4B7" stroke-width="0.702679" stroke-linecap="round" stroke-linejoin="round" stroke-dasharray="1.41 2.11"/>
<path opacity="0.8" d="M78.732 769.314L67.7815 822.421" stroke="#BACAD9" stroke-width="0.702679" stroke-linecap="round" stroke-linejoin="round" stroke-dasharray="1.41 2.11"/>
<g opacity="0.8">
<path opacity="0.45" d="M157.675 743.159C165.334 745.467 172.145 741.719 172.888 734.788C173.63 727.857 168.023 720.367 160.364 718.06C152.704 715.752 145.893 719.5 145.151 726.431C144.408 733.362 150.015 740.851 157.675 743.159Z" fill="#CFDAE6"/>
<path opacity="0.8" fill-rule="evenodd" clip-rule="evenodd" d="M144.886 725.622C144.29 732.77 149.361 740.528 156.214 742.951C163.066 745.374 169.105 741.543 169.701 734.396L144.886 725.622Z" fill="#CFDAE6"/>
</g>
</g>
<path opacity="0.25" d="M170.245 123.7C188.545 119.313 200.273 99.5635 196.439 79.5893C192.605 59.615 174.663 46.9795 156.363 51.3671C138.063 55.7547 126.335 75.5039 130.169 95.4781C134.003 115.452 151.945 128.088 170.245 123.7Z" fill="#CFDAE6"/>
<path opacity="0.3" d="M168.445 114.323C182.001 111.073 190.688 96.4442 187.848 81.6485C185.008 66.8527 171.717 57.4931 158.162 60.7432C144.606 63.9932 135.919 78.6223 138.759 93.418C141.599 108.214 154.89 117.573 168.445 114.323Z" fill="#CFDAE6"/>
<path opacity="0.4" d="M370.739 250.488C385.65 246.913 395.205 230.821 392.082 214.546C388.958 198.271 374.338 187.975 359.427 191.55C344.516 195.125 334.96 211.217 338.084 227.493C341.207 243.768 355.828 254.063 370.739 250.488Z" stroke="#CFDAE6"/>
<path opacity="0.5" d="M165.875 100.929C172.653 99.3037 176.996 91.9892 175.576 84.5913C174.156 77.1935 167.511 72.5136 160.733 74.1387C153.955 75.7637 149.612 83.0782 151.032 90.4761C152.452 97.874 159.097 102.554 165.875 100.929Z" fill="#BACAD9"/>
<path fill-rule="evenodd" clip-rule="evenodd" d="M164.499 100.805L159.745 72.5096C153.513 74.2027 149.525 81.9094 150.838 89.7231C152.15 97.5368 158.267 102.498 164.499 100.805Z" fill="#BACAD9"/>
<g opacity="0.45">
<path opacity="0.45" d="M367.849 227.719C371.24 226.006 372.75 221.618 371.222 217.917C369.694 214.216 365.707 212.605 362.316 214.318C358.925 216.031 357.415 220.42 358.943 224.121C360.471 227.821 364.458 229.433 367.849 227.719Z" fill="#E6A1A6"/>
<path opacity="0.45" fill-rule="evenodd" clip-rule="evenodd" d="M365.8 227.34C363.145 229.263 359.915 227.389 358.585 223.154C357.255 218.92 358.329 213.928 360.983 212.005L365.8 227.34Z" fill="#E6A1A6"/>
</g>
<path d="M415.344 218.986C416.36 218.743 417.012 217.645 416.799 216.536C416.586 215.426 415.589 214.724 414.572 214.968C413.556 215.212 412.904 216.309 413.117 217.418C413.33 218.528 414.327 219.23 415.344 218.986Z" fill="#CFDAE6"/>
<path opacity="0.35" d="M370.273 274.796C371.29 274.552 371.941 273.455 371.728 272.345C371.515 271.236 370.519 270.534 369.502 270.777C368.485 271.021 367.834 272.118 368.047 273.228C368.26 274.338 369.257 275.04 370.273 274.796Z" fill="#E0B4B7"/>
<path opacity="0.35" d="M363.018 173.988C364.374 173.663 365.242 172.2 364.958 170.721C364.674 169.241 363.345 168.305 361.99 168.63C360.634 168.955 359.765 170.418 360.049 171.898C360.333 173.377 361.662 174.313 363.018 173.988Z" fill="#E0B4B7"/>
<path opacity="0.8" d="M163.244 108.717L354.54 194.624" stroke="#CFDAE6"/>
<g opacity="0.8">
<path opacity="0.8" d="M1361.32 47.5218C1368.1 44.6196 1371.64 36.3481 1369.21 29.047C1366.79 21.7458 1359.32 18.1798 1352.53 21.082C1345.74 23.9842 1342.2 32.2557 1344.63 39.5568C1347.05 46.8579 1354.53 50.424 1361.32 47.5218Z" stroke="#CFDAE6" stroke-width="0.941176"/>
<g opacity="0.8">
<path opacity="0.45" d="M1361.25 43.1254C1365.82 40.2639 1367.57 33.9977 1365.16 29.1294C1362.75 24.261 1357.09 22.6341 1352.52 25.4956C1347.94 28.3571 1346.19 34.6233 1348.6 39.4917C1351.02 44.36 1356.68 45.9869 1361.25 43.1254Z" fill="#BACAD9"/>
<path opacity="0.8" fill-rule="evenodd" clip-rule="evenodd" d="M1362.57 46.0466C1366.41 42.8637 1367.79 35.8132 1365.64 30.2988C1363.5 24.7844 1358.65 22.8943 1354.81 26.0771L1362.57 46.0466Z" fill="#BACAD9"/>
</g>
<path opacity="0.8" d="M1343.76 21.7528L1302.81 12.2334" stroke="#CFDAE6" stroke-width="0.941176"/>
<path opacity="0.8" d="M1300.68 9.59393C1302.66 8.74745 1303.69 6.33495 1302.98 4.20545C1302.27 2.07596 1300.09 1.03587 1298.11 1.88235C1296.13 2.72883 1295.1 5.14134 1295.81 7.27083C1296.52 9.40032 1298.7 10.4404 1300.68 9.59393Z" stroke="#CFDAE6" stroke-width="0.941176"/>
<path opacity="0.8" d="M1313.94 88.5638C1315.64 87.8383 1316.52 85.7704 1315.92 83.9451C1315.31 82.1198 1313.44 81.2283 1311.75 81.9539C1310.05 82.6794 1309.16 84.7473 1309.77 86.5726C1310.38 88.3979 1312.24 89.2894 1313.94 88.5638Z" fill="#F7E1AD"/>
<path opacity="0.8" d="M1344.21 46.7528L1318.36 82.7464" stroke="#CFDAE6" stroke-width="0.941176"/>
</g>
<g opacity="0.33">
<g opacity="0.33">
<path opacity="0.45" d="M1635.93 585.706C1633.18 579.199 1625.99 576.556 1619.88 579.803C1613.76 583.051 1611.04 590.958 1613.8 597.465C1616.56 603.972 1623.74 606.615 1629.86 603.368C1635.97 600.121 1638.69 592.213 1635.93 585.706Z" fill="#BACAD9"/>
<path opacity="0.33" fill-rule="evenodd" clip-rule="evenodd" d="M1632.56 607.826C1637.18 604.066 1638.91 594.953 1636.43 587.471C1633.95 579.989 1628.19 576.972 1623.57 580.732L1632.56 607.826Z" fill="#BACAD9"/>
</g>
<path opacity="0.33" d="M1699.35 559.857C1702.9 558.427 1704.81 554.199 1703.62 550.414C1702.43 546.628 1698.58 544.719 1695.03 546.149C1691.48 547.579 1689.57 551.807 1690.76 555.592C1691.96 559.377 1695.8 561.287 1699.35 559.857Z" fill="#CFDAE6"/>
<path opacity="0.33" d="M1627.87 568.964L1619.9 468.163" stroke="#BACAD9" stroke-width="1.16667"/>
<path opacity="0.33" d="M1455.51 546.209L1606.39 567.495" stroke="#BACAD9" stroke-width="1.16667"/>
<path opacity="0.33" d="M1619.3 616.143L1695.32 731.34L1511.62 693.636L1596.18 612.841" stroke="#CFDAE6" stroke-width="1.16667"/>
<path opacity="0.6" d="M1648.55 580.045L1688.34 556.968" stroke="#E0B4B7" stroke-width="1.16667"/>
<path opacity="0.33" d="M1706.8 544.774L1725.6 473.41" stroke="#BACAD9" stroke-width="1.16667"/>
<path opacity="0.33" d="M1788.24 588.197L1704.4 566.36" stroke="#CFDAE6" stroke-width="1.16667"/>
<path opacity="0.33" d="M1626.86 465.811C1632.19 463.666 1635.05 457.325 1633.26 451.647C1631.48 445.969 1625.71 443.105 1620.39 445.25C1615.06 447.395 1612.2 453.737 1613.98 459.414C1615.77 465.092 1621.54 467.956 1626.86 465.811Z" fill="#C1D1E0"/>
<path opacity="0.33" d="M1509.03 682.952C1512.23 681.665 1513.95 677.86 1512.87 674.453C1511.8 671.046 1508.34 669.328 1505.15 670.615C1501.95 671.902 1500.23 675.707 1501.3 679.114C1502.38 682.52 1505.84 684.239 1509.03 682.952Z" fill="#C1D1E0"/>
<path opacity="0.33" d="M1446.9 535.479C1452.22 533.334 1455.09 526.993 1453.3 521.315C1451.51 515.637 1445.75 512.773 1440.42 514.918C1435.1 517.063 1432.23 523.405 1434.02 529.082C1435.81 534.76 1441.57 537.624 1446.9 535.479Z" fill="#D1DEED" fill-opacity="0.6"/>
<path opacity="0.33" d="M1698.33 765.426C1701.53 764.139 1703.25 760.334 1702.18 756.927C1701.1 753.52 1697.64 751.802 1694.45 753.089C1691.26 754.376 1689.54 758.181 1690.61 761.587C1691.68 764.994 1695.14 766.713 1698.33 765.426Z" fill="#E0B4B7"/>
</g>
</g>
<defs>
<clipPath id="clip0_207_23414">
<rect width="1729" height="851" fill="white"/>
</clipPath>
</defs>
</svg>
